# xmcd
# Track frame offsets:
# 150
# 16341
# 29398
# 45770
# 61986
# 77282
# 92292
# 106663
# 125847
# 136663
# 148583
# 167997
# 181015
# 194513
# 211332
# 228019
# 244216
# 259095
# 276031
# 290734
# 303787
#
# Disc length: 4286 seconds
# Revision: 0
# Processed by: cddbd v1.5.2PL0 Copyright (c) Steve Scherf et al.
# Submitted via: VisiTrax 2.11.3.279 - For more info visit www.synapsa.com
#
DISCID=1110bc15
DTITLE=Williams, Don - One Good Well-True Love
DYEAR=2014
DGENRE=Country
TTITLE0=Learn To Let It Go
TTITLE1=One Good Well
TTITLE2=Cryin' Eyes
TTITLE3=I've Been Loved By The Best
TTITLE4=Broken Heartland
TTITLE5=Just As Long As I Have You
TTITLE6=Why Get Up
TTITLE7=Maybe That's All It Takes
TTITLE8=We're All The Way
TTITLE9=Flowers Won't Grow (In Gardens Of Stone)
TTITLE10=If You Love Me, Won't You Love Me Like You Love Me
TTITLE11=True Love
TTITLE12=Lord Have Mercy On A Country Boy
TTITLE13=Darlin' That's What Your Love Does
TTITLE14=Come A Little Closer
TTITLE15=Just 'Cause I'm In Love With You
TTITLE16=Back In My Younger Days
TTITLE17=Donald and June
TTITLE18=Diamonds To Dust
TTITLE19=Jamaica Farewell
TTITLE20=Loving You's Like Coming Home
EXTD=
EXTT0=
EXTT1=
EXTT2=
EXTT3=
EXTT4=
EXTT5=
EXTT6=
EXTT7=
EXTT8=
EXTT9=
EXTT10=
EXTT11=
EXTT12=
EXTT13=
EXTT14=
EXTT15=
EXTT16=
EXTT17=
EXTT18=
EXTT19=
EXTT20=
PLAYORDER=
